<svg xmlns="http://www.w3.org/2000/svg" viewBox="0 0 366.22 197.92">
    <defs>
        <style>
            .cls-1,
            .cls-3 {
                fill: #083831;
            }

            .cls-2 {
                font-size: 130.95px;
                fill: #14b8a6;
            }

            .cls-2,
            .cls-3 {
                font-family: MADENZRegular, MADENZ;
            }

            .cls-3 {
                font-size: 61.02px;
                letter-spacing: 0.48em;
            }

            .cls-4 {
                letter-spacing: 0.5em;
            }
        </style>
    </defs>
    <g id="Layer_2" data-name="Layer 2">
        <g id="Background">
            <path class="cls-1"
                d="M2.7,28.44,24.19,13.6C35.73,5.63,50,2,63.77,4.66c1.14.22,2.28.48,3.44.79a62,62,0,0,1,14.84,6.3c5.32,3,13.65,7.73,20,17.06a40.2,40.2,0,0,1,4.72,9.08,37.13,37.13,0,0,1,1.95,15c-1.16,12.46-10,20.75-12.5,23.1C84.08,87.42,65.73,91.47,65.73,91.47h0L48.68,78.86,75.5,64l5.24-5.55A23,23,0,0,0,82.79,44C80.7,33.59,71.15,28.39,66.47,25.84c-3.14-1.71-7.54-4-13.35-3.7a22.37,22.37,0,0,0-8.89,2.59A104.62,104.62,0,0,0,22.72,38.82l-5.93,4.45Z" />
            <path class="cls-1"
                d="M62,52.31,29.09,71.56a14,14,0,0,0-7.21,11.93A13.65,13.65,0,0,0,22.35,87c3.45,12.77,25.58,20,25.58,20h0A15.6,15.6,0,0,0,55.81,109a17.22,17.22,0,0,0,7-1.94A61.28,61.28,0,0,0,75,99.62l9.23-8.15h0l17.8,8.9-4.45,5.19h0L78.2,119.27a42.77,42.77,0,0,1-24.93,7.81H53a49.94,49.94,0,0,1-18.42-3.72,96.6,96.6,0,0,1-17.8-10c-.82-.58-1.61-1.17-2.38-1.75C2.71,102.72-3,87.48,1.61,73.54c.32-.94.68-1.88,1.09-2.83,3.88-9,10.52-14,15.57-17.8A63.65,63.65,0,0,1,42,41.79h0L62,52.17Z" />
            <text class="cls-2" transform="translate(113.35 111.31)">NV</text><text class="cls-3"
                transform="translate(26.71 183.21)">B<tspan class="cls-4" x="88" y="0">YTE</tspan></text>
        </g>
    </g>
</svg>